<?xml version="1.0" encoding="UTF-8"?>
<svg id="Layer_2" data-name="Layer 2" xmlns="http://www.w3.org/2000/svg" viewBox="0 0 390.46 390.95">
  <defs>
    <style>
      .cls-1 {
        fill: #fff;
      }
    </style>
  </defs>
  <g id="Layer_1-2" data-name="Layer 1">
    <g>
      <path d="M326.15,55.8l1,6.46c2.95.94,5.33,2.79,7.72,4.66,18.58,14.52,23.55,23.64,33.25,44.75.4.86,3.23,3.62.52,3.24-3.69-.51-15.71-13.35-19.51-16.49-28.43-23.51-58.71-40.75-93.67-52.58-5.32-1.8-10.26-5.34-16.18-4.45l1.49-1.48c-5.75-.74-11.87-3.46-17.64-3.75-1.59-.08-3.05-.67-2.61,1.48,4.83.69,9.74,1.87,14.42,3.22,24.1,6.94,57.49,20.59,77.44,35.81,4.83,3.68,9.38,8.93,14.29,12.71,5.47,4.21,11.67,7.49,17.21,12.04,7.39,6.06,14.51,14.2,21.79,20.21,2.54,2.1,6.49,3.85,8.5,5.75,3.81,3.59,9.4,20.17,10.98,25.77.41,1.45.99,7.11,1.25,7.38.32.35,1.84.01,2.49.86.14.18,1.58,3.93,1.58,4.16,0,.63-1.77,2.74-.45,4.84-4.44,0-1.56,4.91-6.73,2.63-3.26-1.44-2.28-7.3-3.43-10.07-3.25-7.84-21.79-25.19-28.46-31.54-21.93-20.9-45.49-41.44-72.36-55.89l-10.51-4.49,26.96,18.81c21.23,18.57,43.14,37.42,62.31,58.42,6.51,7.13,21.38,25.59,24.36,34.14,1.23,3.52,1.15,4.87-1.86,7.13,1.53,2.82,2.52-2.96,4.48-1.12.61.57-.87,2.19-1.49,2.62l6.74-1.87c-.59,4.54.21,10.87-.93,15.19-.73,2.78-7.29,7.55-2.83,8.82l-1.56,1.18c.3,2.08,1.27,3.55,1.41,5.74.27,4.3-2.23,15.69-4.58,19.35-.55.85.65,1.45-2.76,2.6l3.73,1.49-3.73,1.88c2.7,2.06,2.09,2.02,1.49,5.24l3.76,1.5-2.99.37.79,2.17c-1.86,1.18-3.55,2.68-2.31,4.97-3.78-1.79-5.43.83-8.98,1.57,1.04,1.57-.55,3.3-.49,4.05.05.64,1.18,1.19,1.25,2.26.03.46-1.37.24-1.52.88-2.2,9.12-10.48,19.91-16.05,28.08-37.86,55.52-75.23,85.69-144.02,92.98-3.79.4-8.12,2.62-12.43.68,5.1-6.26,12.48-9.93,18.68-14.68,12.66-9.7,25.33-19.19,38.36-28.39,4.97-3.51,10.98-5.76,14.95-10.55-3.89-1.07-7.09,3.94-9.57,5.63-10.61,7.26-22.22,14.09-32.4,21.4-6.31,4.53-32.01,26.25-36.58,27.17-2.28.46-4.66.06-6.96.17-1.86-1.91,7.39-11.88,8.86-14.01,6.92-10.02,15.8-31.99,15.74-44.11-.04-8.5-4.2-15.49-5.64-23.46-5.09-28.02,13.33-56.5,26.66-79.43,3.59-6.17,11.75-25.68,18.69-27.11,8.35-1.73,10.33,11.57,9.93,17.49-1.11,16.6-15.18,27.17-17.81,42.18-.61,3.51-.16,7.45-.84,10.96l1.78,1.24c5.26-5.57,10.9-10.51,15.7-16.56,16.28-20.5,28.64-45.18,45.14-65.86,3.29-4.12,11.73-15.4,17.79-13.5.72.22,4.16,6.3,4.2,7.02.3,5.95-18.92,33.77-23.07,40.66-11.63,19.3-22.65,39.26-34.76,58.24-.62.97-6.23,7.66-5.87,8,1.42.25,2.15-.98,3.02-1.85,3.33-3.34,7.72-8.65,10.87-12.38,21.99-26.09,38.02-57.07,57.4-85.11l2.23-.8c1.23.56,8.6,9.63,9.18,11.15.91,2.38-3.2,9.7-4.56,12.26-12,22.48-27.58,48.19-41.07,69.93-.98,1.57-5.61,4.51-4,6.75.09.13,2.04.74,2.45.66,3.52-.65,13.4-17.19,15.93-20.78,4-5.68,8.46-11.21,12.17-17.08,8.84-13.99,15.96-29.68,24.97-43.67,2.69-.4,3.48,2.43,4.68,3.42,1.3,1.08,7.7,5.37,7.91,6.02.66,2.09-1.67,6.4-2.65,8.39-9.65,19.66-24.32,42.05-36.13,60.62-4.48,7.04-12.77,17.09-13.68,25.36-.4,3.63,1.62,1.58,1.54,4.11-4.44-.35-2.67,3.08-3.65,4.18-.81.91-2.29.8-2.85,1.32-2.09,1.96-8.12,8.13-9.66,10.22-.76,1.03-1.41,1.52-1.09,3.03.48.54,6.07-4.25,6.76-4.86,5.82-5.24,10.22-11.74,15.73-17.27l-.09-1.05c-4.21-1.06,2.8-1.51,3.01-1.7.24-.22-.03-1.38.34-1.82,5.21-6.16,10.3-12.47,15.49-18.68l-2.24-1.12,3-1.5-1.5-2.23c.87-.68,3.47-.07,3.62-.17,1.44-.92,5.94-9.89,8.37-11.47l-1.1-1.1c-2.39.53-2.28,3.65-3.76,5.23-2.17-1.61-.08-3.91-.37-6l2.24.75c-1.18-4.65,4.05-9.41,6.14-13.74,4.71-9.72,8.29-17.27,13.64-26.86,1.19-2.14,2.86-8.97,5.35-8.95,3.48.03,3.64,10.2,5.61,12.43,1.03.99.38-.44,1.37-1.09.39-.25,1.38.09,1.62-.08.32-.22-.76-7.23-.92-7.67-.62-1.75-4.18-4.99-4.34-6.98-.12-1.44,4.27-12.48,4.52-15.79.2-2.65-3.8-6.63.2-6.27,2.09-1.09-.53-2.37-.62-2.54-2.95-5.56-4.04-8-7.8-12.86-22.06-28.54-48.29-50.37-75.03-74.22-9.37-8.36-13.64-15.12-26.18-20.32-1.17-.49-1.81-.74-1.56.81,2.45,1.7,4.76,4.29,7.01,6.11,7.79,6.3,8.31,7.76,14.71,14.92,13.62,15.22,32.61,30.16,47.26,44.99,8.12,8.21,34.59,34.65,36.46,44.6,1.07,5.7-3.19,10.46-6.92,14.22-8.09-3.31-11.73-11.64-17.15-17.97-22.15-25.85-43.24-46.87-70.22-67.78-9.94-7.7-20.19-16.6-32.16-20.7,1.07,10.84,7.63,17.34,14.98,24.39,10.73,10.28,31.59,23.99,32.09,40.31.25,7.98-3.94,9.45-10.85,6.71-3.89-1.55-19.03-15.77-23.12-19.63-22.93-21.64-41.36-46.56-61.49-70.51-5.49-6.54-9.91-13.05-12.32-21.43-.55-1.92-1.62-4.22.32-5.56,3.39,2.32,7.32,2.34,10.91,3.33,3.89,1.07,7.96,3.28,11.97,3.03-3.72-3.59-22.65-6.55-24.38-10.12-1.51-3.13.65-18.4,1.35-22.66.37-2.24,1.57-4.46,1.88-6.4.18-1.11-.83-2.64-.51-3.07,2.27-3.05,2.36-4.19,4.26-7.39,3.67-6.2,16.17-19.31,23.75-19.02,2.42.09,10.31,1.89,13.32,2.49,37.7,7.55,71.71,26.65,100.22,51.7ZM272.27,37.63c-4.67-6.56-14.03-6.23-21.16-8.46-6.16-1.92-12.15-4.78-18.26-6.49-11.1-3.1-22.66-3.56-34.08-4.54.39,1.17,3.45,1.48,4.62,1.75,11.6,2.61,23.51,3.62,35.14,6.11l33.74,11.63ZM219.77,35.39l-31.5-4.5c-.56,1.89,1.61,1.85,2.81,2.03,8.18,1.22,19.01,3.28,26.89,3.89,1.59.12,2.04.54,1.79-1.42ZM240.02,63.88c-3.29-2.79-7.72-5.13-11.79-6.58-11.08-3.92-29.65-9.43-41.12-9.93-1.51-.07-3.02-.26-4.08,1.14l24,4.49,33,10.87ZM256.99,324.61c8.45-6.91,24.36-21.16,31.04-29.32.99-1.21,2.37-2.39,2.22-4.14l-7.43,7.94c-14.34,10.37-26.88,23.7-41.04,34.68-6.56,5.09-13.76,9.48-20.37,14.51l.21,2.11c6.79-3.98,13.01-8.76,19.3-13.49,5.2-3.91,10.96-8.11,16.06-12.29ZM249.77,371.39l31.48-22.87c-1.2-1.75-1.63-.64-2.91.07-4.68,2.59-11.24,8.54-15.87,11.88-4.1,2.96-7.91,4.29-11.77,8.44-.78.84-1.35.49-.92,2.48Z"/>
      <path d="M9.77,168.14l2.2-.03.75-2.64-1.45-.69,6.64-6.91c.7-2.7-2.28-3.3-3.03-5.02-1.15-2.65-4.05-15.79-4.38-18.79-.03-.23.23-4.05.37-4.2.65-.74,2.18-.31,2.69-1.24.44-.79,1.32-6.13,2.18-8.11,4.06-9.36,15.85-25.29,22.21-34.04,12.62-17.35,30.25-39.54,48.07-50.54,1.29-.8,3.07-3.35,2.49-5.03l2.24.76v-2.26c1.09.13,1.78.77,2.96.38,4.05-1.34,12.19-7.58,16.5-9.8,12.83-6.6,26.44-11.84,40.56-14.94l-.76-2.63c4.55,2.13,8.56-.25,13.22-.66,5.73-.5,17.34-2.09,22.41-1.66,3.78.32,1.74.57,5.97.19,2.16-.2,4.89.11,7.14-.12l-15.42,19.45c-11.61,21.62-10.25,44.66-.71,66.81.92,2.13,3.01,3.16,3.36,5.68.49,3.51-1.84,17.07-2.72,21.2-5.42,25.36-20.5,49.43-31.76,72.49-1.28,1.99-6.94,5.06-8.99,3.77-1.26-.79-5.06-7.7-5.61-9.41-5.37-16.6,8.62-35.16,13.64-50.82,1.1-3.42,1.45-7.05,3.22-10.29.45-2.24-2.8-.45-3.69.07-9.49,5.63-26.81,27.33-33.38,37.12-12.2,18.18-22.38,38.09-34.32,56.43-2.53,3.89-9.86,14.57-15.07,13.15-1.83-1.11-4.61-4.27-4.82-6.36-.43-4.22,5.5-15.58,7.63-19.8,14.87-29.38,35.44-56.34,48.02-86.98.62-1.51.45-4.42,1.1-5.48.49-.81,1.9-.53,2.6-1.3,3.52-3.9,9.72-12.96,12.45-17.58.42-.71,1.44-2.05.36-2.64l-20.62,25.88c-16.61,26.51-31.93,53.92-47.13,81.12-3.5,6.26-11.02,16.66-13.2,22.79-.39,1.08-1.07,4.49-.95,5.49.34,2.82,2.87,2.38,4.32,3.8.71.7,5.21,8.2,5.12,8.86-.11.8-1.62,2.64-1.41,2.79,1.89.27,1.94.04,2.61-1.5,4.37,1.78,6.73,5.77,10.13,8.64,17.72,14.94,37.91,35.48,61.31,39.94,1.43.27,2.83.23,4.27.19.87-.14.46-3.13.26-3.96-1.54-6.51-27.67-27.66-33.84-34.38-7.55-8.21-14.65-16.7-11.41-28.48.67-2.43,6.58-3.22,8.86-2.78,8.81,1.69,25.46,22.9,32.42,29.87,4.43,4.43,9.94,8.33,14.66,13.09s10.82,13.49,15.69,17.32c1.17.92,2.91,1.02,3.03,1.13.22.22-.73,1.36-.06,2.58,2.2,4,11.6,15.01,15.09,19.47,7.09,9.06,16.75,16.14,17.22,28.9-11.49-1.86-21.25-8.44-31.84-12.78-.82-.34-2.77-1.27-3.4-.35,6.14,4.04,12.9,7.54,19.74,10.26,3.79,1.51,13.46,3.63,15.76,5.06,2.06,1.29,1.48,11.04.43,13.5-1.81,1.25-34.3-9.81-38.73-11.8l-3.2.62,40.53,13.84c1.04.57-.15,3.17-.45,4.11-.42,1.3-2.55,7.11-3.66,7.29-26.29-3.35-50.69-14.24-75.43-22.99.98,1.72,3.53,2.6,5.26,3.35,17.29,7.52,45.81,18.46,64.12,20.63,1.84.22,3.77-.11,5.61.02-.57,4.47-2.69,8.84-4.93,12.69-2.55,4.36-8.13,12.56-11.26,16.49-.89,1.12-3.01,3.71-4.4,3.78-2.56-1.46-5.73-.99-8.12-1.63-1.53-.41-2.66-1.71-4.53-2.22-2.63-.72-5.4-.52-8.01-1.38l.75-2.24-2.62,1.52-.71-1.41c-19.11-.53-53.35-21.34-69.35-32.8-11.96-8.57-27.56-20.94-35.32-32.78-.66-1.01-2.12.26-.74-2.78l-3,.74c1.41-2.36-.46-2.68-1.5-4.49l3.01,2.99,1.11-2.24c1.62.78,2.8,2.89,4.01,3.69,19.47,13,44.9,25.52,66.15,35.64,6.5,3.09,12.28,8.32,20.21,6.79-1.68-.98-4.25-2.47-6-3.08-2.16-.75-1.15.06-3.93-1.27-41.62-19.87-72.53-34.94-102.95-71.02-7.39-8.76-12.53-24.98-15.03-35.97-.48-2.1-.53-4.31-1.1-6.4l3.4,3.36c2.18-.02.17-4.32.37-5.24l2.25,4.5c3.52.34-.05-4.05-.41-5.24-.29-.96.38-1.97,0-2.96-1.08-2.75-4.03-5.99-4.86-9.05l-.74,5.59-1.5,1.89c1.24-3.64-.22-6.66-.65-10.16-.14-1.09.67-2.34.5-3.55-.26-1.94-2.96-5.04-3.42-7.83s.26-4.42.18-6.6c-.03-.91-1.62-2.77-.36-4.85H.01c-.21-1.94,2.05-2.28,2.29-4.17.26-2.09-1.17-2.85-1.25-3.74-.56-6.05,1.16-13.49,1.89-19.54.87-7.24.9-14.45,3.83-21.3.93.12,2.99,3.87,2.99,4.12v13.12ZM163.51,23.39c-5.11,1.55-8.18,5.99-12.39,8.97-4.99,3.53-10.6,6.35-15.6,9.9l-4.25,4.37c4.01-1.89,8.15-4.11,11.89-6.47,5.08-3.21,15.3-9.85,18.85-14.15.7-.84,1.82-1.21,1.49-2.62ZM136.51,24.14c-.55-.44-11.22,5.01-12.53,5.84-1,.64-2.01.91-1.71,2.4,1.24,1.13,11.06-5.28,12.75-6.39.36-.24,2.94-.68,1.49-1.85ZM148.51,52.64c-1.45-.06-2.75.96-3.97,1.65-13.8,7.8-24.83,18.31-37.96,25.79l-18.07,15.68,3.71,1.53c7.9-6.64,14.75-14.3,22.94-20.62,9.36-7.22,19.78-13.39,29.53-19.97,1.27-.86,3.86-2.31,3.81-4.06ZM86.27,57.15c-1.13-1.01-10.13,8.13-11.27,9.35-19.74,21.16-35.65,50.02-54,72.78-1.02,1.27-.05,3.09-2.86,2.69l-.12,3.68,4.05-.1c1.29-1.85,1.3-4.2,4.23-3.3,11.23-14.77,21.83-30.11,32.95-45,3.39-4.54,6.94-9.5,10.54-14.2.85-1.11,5.62-5.45,5.77-5.83.62-1.55.08-3.64,1.03-6.12,1.63-4.23,6.95-10.18,9.67-13.94ZM84.02,105.91c-4.32-.93-1.23-2.88,0-4.91.65-1.08.48-1.89-.37-1.85-1.17.06-15.06,14.08-16.9,16.09-14.73,16.14-24.31,33.81-35.37,52.38-3.68,6.18-7.11,9.73-9.97,17.08-.33.84.34,1.81.16,2.07-.22.32-1.97-.37-1.29,1.61,1.49-2.09,4.93-.68,5.16-.83.69-.44,6.36-12.51,7.57-14.55,9.35-15.72,24.64-40.5,37.02-53.36,1.2-1.25,14.93-12.44,13.99-13.75ZM80.28,130.62c1.15-1.61,2.07-3.24,2.71-5.13.42-1.26.68-2.38-.86-.86-3.68,3.63-9.24,13.04-12.23,17.78-10.02,15.88-24.52,38.27-32.05,54.95-.92,2.05-1.58,4.16-1.85,6.4,4.38.06.26,4.29,4.43,3.31,11.61-26.48,30.44-49.35,41.39-75.99l-1.55-.45ZM10.51,213.89c1.67-3.3.86-8.3-3.74-7.49-1.25,1.17,4.22,11.24,5.37,13,.57.87,4.68,6.4,5.07,6.74.99.86,2.28.3,3.42,1.26,24.01,20.04,44.29,48.29,70.96,66.3l27.68,16.94c-.14-1.88-2.76-3.32-4.15-4.46-18.45-15.14-34.19-31.04-51.33-47.67-6.81-6.6-15.47-13.07-21.01-20.99-5.02-7.17-5.33-12.52-5.29-21.03.01-2.51,1.8-6.76-1.85-8.59-1.3-.65-1.41,1.34-1.63,2.1-1.95,6.72-3.34,14.73-.24,21.14l-7.34-3.87c.84-3.01-1.46-.92-2.74-2.09-2.05-1.86-6.1-6.67-7.5-9.08-.69-1.2-1.26-2.26-1.17-3.71-1.93,1.24-1.95,2.59-4.5,1.5ZM106.52,327.88c-2.05-1.87-5.01-2.54-7.45-4.17-14.56-9.69-29.85-24.67-42.81-36.69-11.48-10.64-20.95-23.05-31.87-34.13l-.38,2.26-1.49-.77v2.25s2.99,0,2.99,0c-1.54,2.99.69,4.43.86,7.4l2.14.1-1.49,1.11c1.85,2.59,3.16,4.55,6.75,4.13-1.83,2.62.95,2.4,2.15,4.39.76,1.26,1.51,3.12,1.61,4.62,2.78-2.11,4.41,3.06,5.99,4.87,10.93,12.53,42.35,38.58,57.79,43.46,1.68.53,3.43,1.14,5.21,1.15ZM149.26,324.15c-10.52-2.55-19.54-8.26-29.25-12.75,6.53,5.14,15.42,10.34,23.26,13.1,1.77.62,4.81,2.13,5.98-.35ZM151.25,364.23c-3.09-1.15-7.94-5.96-10.97-2.97.03.85,13.81,6.83,15.36,7.13,3.68.72-4-3.77-4.39-4.17Z"/>
      <path d="M219.65,133.04c2.25,3.29,1.55,1.77,3.9,3.94,1.33,1.23,8.21,8.68,6.71,10.16-3.74.06-11.38-3.48-11.24,2.26.54-.14,1.13-.61,1.71-.48,6.99,1.49,20.44,7.23,25.05,12.71,3.02,3.6,1.58,5.15,2.15,8.14.52,2.76,1.59,5.72,1.83,8.52.49,5.76-.92,12.1.76,17.61-2.7-.06-5.84.13-8.39,1-2.11.72-2.17,1.7-3.6,2.75,1-8.13,2.61-16.33,2.77-24.55.03-1.44-2.28-4.99.68-6.91l3.28.71-.75-4.51c-7.4.87-14.74-5.07-18.2,4.68-6.96,19.61-3.27,32.85-18.9,50.85-8.48,9.77-34.42,26.06-46.87,28.9-1.26.29-6.99.25-8.08-.22-1.55-.67-2.43-2.72-4.21-3.14l-.12-1.56c12.89-4.74,26.4-9.93,37.83-17.67,25.62-17.33,27.17-36.65,32.65-64.85.68-3.51,4.48-7.98-.98-8.15-5.65,11.54-5.5,25.12-9.49,37.42-7.1,21.89-27.4,36.87-48.38,44.62-6.31,2.33-21.16,5.97-23.23-2.95,6.03-2.44,12.84-3.36,19.14-5.64,30.5-11.03,43.11-25.16,48.89-57.61,1.41-7.93,1.28-15.75,2.84-23.41l11.63-1.86c-3.71-5.04-11.07-1.28-16.49-3.38-.37,14.97-2.43,33.82-8.11,47.77-8.98,22.05-36.69,37.46-59.79,38.49-7.39.33-8.42-4.03-12.04-8.94-1.13-1.53-3.1-2.75-3.96-4.29-2.49-4.48-1.57-12.25-3.46-16.79-.98-2.35-1.14,1.45-1.88.76-.78-2.4,1.4-1.87,1.55-3.32.34-3.15-.36-6.93-.06-10.17l-2.24,1.49c-.91-2.52,2.1-2.69,2.29-3.52.39-1.81-1.11-3.8-.66-5.66,1.58-6.53,11.77-14.77,14.78-19.76,2.78-4.62,2.87-13.12,9.84-14.56-2,4.62-5.42,8.73-7.11,13.51-2.98,8.4-3.94,23.9-.77,32.25.38,1.01,5.27,8.34,5.86,8.76,3.69,2.63,9,1.61,12.91.24,15.91-5.57,24.84-15.23,27.91-32.09,1.71-9.42.69-20.69,4.87-29.63,1.32-2.82,3.02-5.25,6.46-3.41.93,1.44.33,16.88.12,19.73-1.76,23.45-9.27,46.03-32.6,55.9-8.4,3.55-28.2,8-28.15-6.02-4.48.12-2.22,12.71-.27,13.39,3.53,1.23,3.97-3.94,6.71.87l2.14-.79c.46,0,.35,1.39.92,1.54,1.98.49,16.85-3.81,19.72-4.92,34.31-13.2,36.07-47.68,35.38-79.74.76-1.21,13.88-1.84,16.03-1.61,1.27.14,10.43,2.69,10.75,3.15ZM133.52,219.88c-1.77-2.68-5.31-3.27-8.25-2.98,1.31,2.91,5.48,2.6,8.25,2.98Z"/>
      <path d="M219.76,234.14l-1.86-3.74c-4.22,3.98-9.09,7.58-13.95,10.8-2.87,1.91-11.38,5.7-12.97,7.13s1.06,1.25-2.03,2.01c-4.3,1.06-12.77,7.64-16.71,6.9-.79-.15-1.51-1.59-1.97-1.34-.09.05.3,1.18-.92,1.73-4.32,1.96-11.59,1.48-11.07-4.71,2.93-.79,6.49-1.35,9.3-2.33,12.19-4.24,35.47-17.75,43.56-27.69,12.44-15.3,15.36-34.5,19.55-53.2,1.72-3.18,5.84-2.89,8.59-1.19l.73,1.48c-3.32,8.75-4.02,18.32-6.37,27.42-1.59,6.15-3.94,14.66-6.77,20.23s-8.79,9.74-7.12,16.5Z"/>
      <path d="M216.77,239.4l-11.03,16.53c-5.49,1.88-11,4-16.52,5.79-2.24.73-3.96-1.07-4.69,2.41l18.34-2.23.86,1.55c-.18,1.17-2.55,5.73-3.48,6.29-.88.53-12.7,2.48-14.61,2.64-2.32.19-7.65.39-9.72,0s-8.85-6.61-9.35-8.66c-.46-1.08,2.45-1.96,3.03-2.13,11.56-3.32,22.69-8.69,33.45-14.54,1.78-.97,12.61-8.6,13.73-7.64Z"/>
      <path d="M263.27,235.64c.63-7.86,2.69-14.84,2.23-22.86-.62-10.76-1.17-21.6-2.05-32.46-.09-1.06-.8-1.99.95-1.69,1.28.22,5.83,4.78,6.76,6,4.99,6.51,4.01,21.02,5.41,29.06-4.15,7.26-8.01,15.64-13.29,21.96Z"/>
      <path d="M107.55,257.86c2.25,2.41,8.6,9.74,10.97,11.03.54.3,1.6-.28,2.22.12.96.62,1.69,3.03,3.03,3.75-.59,1.13-1.81-.21-2.5-.5-12.17-5.15-26.4-20.4-36.18-29.4-1.51-1.39-9.31-7.88-9.71-8.74-2.16-4.61,5.92-8.05,8.41-10.71.94-1.01,1.18-3.39,2.86-4.27.21,7.05,1.07,13.21,4.48,19.51,2.87,5.3,11.93,14.39,16.42,19.21Z"/>
      <path d="M113.26,210.14c-.78.78-15.41-6.29-15.63-7.19,1.59-9.03,7.05-15.57,13.01-22.05l2.62,29.24Z"/>
      <path d="M298.52,168.51c-.24-1.17-4.43-8.9-5.38-10.37-1.17-1.81-5.49-6.03-5.86-6.89-1.19-2.77,4.99,1.4,5.62,1.88,3.84,2.93,10.49,8.89,13.92,12.35,7.86,7.94,5.46,6.34-.8,12.02-1.32,1.19-5.88,6.38-7.12,6.36-1.82-.03-.37-1.76-.37-1.86,0-3.57.62-10.5,0-13.5Z"/>
      <path d="M214.51,126.14l-29.99,1.5,4.65-10.34.95-.22c9.21.07,20.15-.84,24.39,9.05Z"/>
      <path d="M263.26,204.14c-1.28-2.12-6.67-6.51-7.3-8.07-1.73-4.29-3.01-17.7-2.48-22.34.42-3.7,2.37-2.8,4.57-.74,2.95,2.76,2.43,9.11,3.18,13.32.38,2.13,1.69,4.11,1.98,6.27.49,3.65-.21,7.84.06,11.56Z"/>
      <path d="M279.77,210.14l-1.51-21,13.52,1.85.34,2.63c-4.74,5.08-6.6,12.46-12.35,16.52Z"/>
      <path d="M198.77,275.39c.62.64-1.18,7.02-1.98,7.57-.86.6-10.55,2.12-11.94,2.08-3.01-.09-5.96-5.19-6.34-7.78-.23-1.53.13-.98,1.12-1.12,5.57-.79,13.28.09,19.15-.75Z"/>
      <path d="M158.27,186.88l14.61-29.24c1.53.98.82,1.61.68,2.85-.95,8.21-5.45,25.75-15.29,26.39Z"/>
      <path d="M204.02,112.64h-14.25c-.08-4.55.8-9.33,2.63-13.51,1.88.05,11.53,10.56,11.62,13.51Z"/>
      <path d="M196.51,287.39l-2.62,9.73c-1.83-2.66-6.46-4.56-7.87-7.87-.65-1.52,1.04-1.07,1.85-1.12,2.92-.19,5.74.1,8.64-.74Z"/>
      <path d="M32.91,292.74c.24.17.75,2.63,1.31,3.57,1.15,1.93,3.7,5.3,5.11,7.29,1.2,1.69,3.06,1.21,2.28,4.05l1.52-.75,1.87,3c-1.13-.87-2.98.14-3.74-.33-.61-.38-3.85-6.4-5.61-7.99s-2.53-.56-2.61-.69c-.52-.96.77-3.54-2.19-3.82,1.87-2.78-2.11-1.79-.47-4.41l2.52.11Z"/>
      <path d="M260.26,241.64c0,2.65-1.42,6-4.49,4.49l1.62-4.36,2.88-.13Z"/>
      <path class="cls-1" d="M374.26,38.39l2.25,12.75-3.81-4.13c1.42-3.01,1.75-5.12.09-8.26l1.48-.36Z"/>
      <path class="cls-1" d="M272.27,37.63l-33.74-11.63c-11.63-2.49-23.54-3.5-35.14-6.11-1.17-.26-4.23-.58-4.62-1.75,11.42.98,22.97,1.43,34.08,4.54,6.11,1.71,12.1,4.57,18.26,6.49,7.13,2.22,16.49,1.9,21.16,8.46Z"/>
      <path class="cls-1" d="M256.99,324.61c-5.1,4.17-10.85,8.38-16.06,12.29-6.3,4.73-12.51,9.51-19.3,13.49l-.21-2.11c6.61-5.03,13.81-9.42,20.37-14.51,14.16-10.99,26.7-24.32,41.04-34.68l7.43-7.94c.15,1.75-1.23,2.94-2.22,4.14-6.69,8.17-22.6,22.41-31.04,29.32Z"/>
      <path class="cls-1" d="M240.02,63.88l-33-10.87-24-4.49c1.06-1.4,2.57-1.21,4.08-1.14,11.47.51,30.04,6.01,41.12,9.93,4.07,1.44,8.5,3.78,11.79,6.58Z"/>
      <path class="cls-1" d="M249.77,371.39c-.43-1.99.15-1.64.92-2.48,3.86-4.15,7.68-5.48,11.77-8.44,4.63-3.35,11.18-9.29,15.87-11.88,1.28-.71,1.71-1.82,2.91-.07l-31.48,22.87Z"/>
      <path class="cls-1" d="M219.77,35.39c.25,1.96-.2,1.54-1.79,1.42-7.88-.61-18.72-2.67-26.89-3.89-1.2-.18-3.37-.15-2.81-2.03l31.5,4.5Z"/>
      <path class="cls-1" d="M10.51,213.89c2.55,1.1,2.56-.26,4.5-1.5-.09,1.45.48,2.51,1.17,3.71,1.39,2.41,5.45,7.22,7.5,9.08,1.28,1.16,3.59-.93,2.74,2.09l7.34,3.87c-3.1-6.42-1.7-14.42.24-21.14.22-.76.33-2.75,1.63-2.1,3.64,1.83,1.86,6.08,1.85,8.59-.04,8.51.26,13.86,5.29,21.03,5.54,7.92,14.2,14.39,21.01,20.99,17.14,16.63,32.89,32.52,51.33,47.67,1.4,1.15,4.01,2.59,4.15,4.46l-27.68-16.94c-26.67-18.02-46.95-46.27-70.96-66.3-1.15-.96-2.43-.4-3.42-1.26-.39-.34-4.5-5.87-5.07-6.74-1.15-1.76-6.62-11.83-5.37-13,4.6-.81,5.41,4.19,3.74,7.49Z"/>
      <path class="cls-1" d="M86.27,57.15c-2.72,3.77-8.05,9.72-9.67,13.94-.95,2.48-.41,4.57-1.03,6.12-.15.38-4.92,4.72-5.77,5.83-3.61,4.7-7.15,9.66-10.54,14.2-11.12,14.89-21.73,30.23-32.95,45-2.93-.9-2.94,1.45-4.23,3.3l-4.05.1.12-3.68c2.81.4,1.84-1.42,2.86-2.69,18.35-22.76,34.25-51.62,54-72.78,1.14-1.22,10.14-10.35,11.27-9.35Z"/>
      <path class="cls-1" d="M106.52,327.88c-1.79-.01-3.53-.62-5.21-1.15-15.44-4.88-46.86-30.93-57.79-43.46-1.58-1.81-3.21-6.98-5.99-4.87-.1-1.5-.84-3.36-1.61-4.62-1.2-1.99-3.98-1.77-2.15-4.39-3.59.41-4.9-1.54-6.75-4.13l1.49-1.11-2.14-.1c-.17-2.97-2.4-4.41-.86-7.4h-3.01s.01-2.26.01-2.26l1.49.77.38-2.26c10.92,11.08,20.39,23.49,31.87,34.13,12.96,12.02,28.25,26.99,42.81,36.69,2.44,1.63,5.4,2.3,7.45,4.17Z"/>
      <path class="cls-1" d="M84.02,105.91c.94,1.31-12.79,12.5-13.99,13.75-12.38,12.85-27.67,37.64-37.02,53.36-1.21,2.04-6.88,14.11-7.57,14.55-.23.15-3.67-1.26-5.16.83-.68-1.98,1.07-1.29,1.29-1.61.18-.26-.49-1.23-.16-2.07,2.87-7.35,6.29-10.9,9.97-17.08,11.06-18.56,20.64-36.24,35.37-52.38,1.83-2.01,15.73-16.03,16.9-16.09.84-.04,1.02.77.37,1.85-1.22,2.03-4.31,3.97,0,4.91Z"/>
      <path class="cls-1" d="M80.28,130.62l1.55.45c-10.95,26.64-29.78,49.51-41.39,75.99-4.17.98-.05-3.24-4.43-3.31.27-2.24.93-4.36,1.85-6.4,7.53-16.68,22.03-39.07,32.05-54.95,2.99-4.74,8.55-14.14,12.23-17.78,1.54-1.53,1.28-.4.86.86-.64,1.9-1.56,3.52-2.71,5.13Z"/>
      <path class="cls-1" d="M148.51,52.64c.04,1.74-2.54,3.2-3.81,4.06-9.75,6.59-20.17,12.75-29.53,19.97-8.19,6.32-15.04,13.98-22.94,20.62l-3.71-1.53,18.07-15.68c13.13-7.48,24.16-17.99,37.96-25.79,1.22-.69,2.52-1.71,3.97-1.65Z"/>
      <path class="cls-1" d="M163.51,23.39c.32,1.41-.8,1.78-1.49,2.62-3.55,4.29-13.77,10.93-18.85,14.15-3.74,2.37-7.89,4.58-11.89,6.47l4.25-4.37c5-3.54,10.62-6.37,15.6-9.9,4.22-2.99,7.28-7.43,12.39-8.97Z"/>
      <path class="cls-1" d="M149.26,324.15c-1.17,2.48-4.21.97-5.98.35-7.84-2.76-16.73-7.96-23.26-13.1,9.7,4.49,18.73,10.2,29.25,12.75Z"/>
      <path class="cls-1" d="M151.25,364.23c.39.4,8.06,4.89,4.39,4.17-1.55-.3-15.33-6.29-15.36-7.13,3.02-2.99,7.87,1.82,10.97,2.97Z"/>
      <path class="cls-1" d="M136.51,24.14c1.45,1.17-1.12,1.61-1.49,1.85-1.69,1.11-11.51,7.52-12.75,6.39-.3-1.49.71-1.77,1.71-2.4,1.31-.83,11.98-6.28,12.53-5.84Z"/>
      <path class="cls-1" d="M133.52,219.88c-2.77-.38-6.94-.07-8.25-2.98,2.94-.29,6.48.3,8.25,2.98Z"/>
    </g>
  </g>
</svg>